<svg id="logo" xmlns="http://www.w3.org/2000/svg" viewBox="0 0 108.39 50"><rect id="bg" width="108.39" height="50" fill="#004a93"/><path id="name" d="M16.45,12.68a5.54,5.54,0,0,0-5,5.85v13.2a5.31,5.31,0,0,0,4.72,5.67,5.54,5.54,0,0,0,1.15.12H27.86V35.29H17.41a4.86,4.86,0,0,1-.54,0,3.46,3.46,0,0,1-3.22-3.71v-5.3h14.2l.06-2.22H13.62V18.42a3.33,3.33,0,0,1,3.09-3.56,5,5,0,0,1,.76-.06H27.93V12.57H17.56A4.11,4.11,0,0,0,16.45,12.68Zm34.81,1.58a5.6,5.6,0,0,0-4.55-1.68H34.54V37.5l2.22,0V28h9.82c3.9,0,6.22-2.31,6.22-6.19V17.65a5,5,0,0,0-.87-2.6A3.29,3.29,0,0,0,51.26,14.26Zm-.68,7.54a3.5,3.5,0,0,1,0,.65c-.32,2.37-1.43,3.34-3.81,3.34h-10v-11h10c2.23,0,3.84,1.35,3.84,3.21Zm8.89-7.19a5.37,5.37,0,0,0-1.25,3.32V37.5h2.21V26.29H74.74V24.07H60.43V18.14a3.79,3.79,0,0,1,.08-.77c.46-1.69,1.79-2.58,3.86-2.58H74.81V12.57H64.23A5.92,5.92,0,0,0,59.47,14.61Zm26.09.19h10.5V12.57H85.57a5.73,5.73,0,0,0-4.16,1.25,5.49,5.49,0,0,0-1.91,4.4V31.48a5.46,5.46,0,0,0,1.8,4.64c1.29,1.15,2.11,1.4,4.65,1.4H96V35.29H85.9A4.77,4.77,0,0,1,83.59,35a3.46,3.46,0,0,1-1.87-3.5V18.15a3.23,3.23,0,0,1,1.12-2.58C83.55,15,84,14.8,85.56,14.8Z" fill="#fff"/></svg>